<svg xmlns="http://www.w3.org/2000/svg" xml:space="preserve" viewBox="0 0 600 600"><path fill="#999" d="m547.9 65.5-18.1 84c-.5-1.6-1.2-3.1-1.7-4.6-6.3-17.9-15.5-34.3-28.1-48.9-13.8-16-31.6-29-53.6-38.8-18.2-8.1-39.6-12.9-64.3-14.3q12-.9 24.6-.9c18.3 0 40.7 2.1 67.2 6.4 26.4 4.2 51.1 9.9 74 17.1"/><path fill="#212121" d="M499.5 496.1v28c0 8.9.7 16.9 2 24.1h-54.1l-8.4-52.5c10.6-9.8 20.5-20.6 29.5-32.6 2-2.6 3.6-5.4 5.5-8.1 12.1-17.2 22.6-36.3 31.5-57.4-1.2 9.5-2.2 19-3 28.6-2 25.1-3 48.3-3 69.9M489 150.1c-.6-1.8-1.3-3.4-1.9-5.2-6.3-17.9-15.6-34.3-28.1-48.9-13.8-16-31.6-29-53.6-38.8q-33-14.7-80.1-14.7c-38.7 0-70.6 3.9-95.9 11.8s-49 19.3-71.3 34.4l19.7 56c13.1-8.5 30.5-17.2 52.1-26.1 21.6-8.8 47.8-13.3 78.7-13.3 15.7 0 30.6 2.1 44.7 6.4s26.5 11.1 37.4 20.6c10.8 9.5 19.2 21.8 25.1 36.9s8.8 33.4 8.8 55.1c0 7.9-.3 15.7-1 23.6s-1.7 16.4-2.9 25.6c-35.4-3.9-68.5-5.9-99.3-5.9-76.7 0-134.9 13.4-174.5 40.3-39.7 26.9-59.5 68.5-59.5 124.9 0 17.1 3.6 33.3 10.8 48.7s17.2 28.7 30 39.8 28.2 20 46.2 26.5 37.5 9.8 58.5 9.8c41.3 0 78.3-8.2 111.1-24.6s60.6-39.7 83.6-69.8c2-2.6 3.6-5.4 5.5-8.1 18.3-25.9 32.8-56.3 43.7-91.1 1.1-3.5 2.4-6.8 3.4-10.5 12.1-42.9 18.2-90.6 18.2-143-.1-20.3-3.2-40.4-9.4-60.4M343.5 453.9c-28.5 27.2-60.1 40.8-94.9 40.8-30.8 0-52.8-7.9-65.9-23.6S163 438.3 163 420c0-17.7 4.4-32.6 13.3-44.7s20.6-21.8 35.4-29c14.7-7.2 31.5-12.3 50.1-15.2 18.7-2.9 37.9-4.4 57.5-4.4 15.1 0 30 .7 44.7 2s28.7 3.3 41.8 5.9c-2.6 10.4-5.6 20.2-8.8 29.6-12.9 37.8-30.7 67.9-53.5 89.7"/></svg>